# xmcd CD database file
#
# Track frame offsets:
#	150
#	9390
#	13995
#	31515
#	39317
#	54145
#	59055
#	71419
#	80817
#	95200
#	103527
#	115217
#	123782
#	130052
#	139015
#	158697
#	171547
#	178367
#	184937
#	195780
#	223202
#	232627
#
# Disc length: 3132 seconds
#
# Revision: 3
# Processed by: cddbd v1.5.2PL0 Copyright (c) Steve Scherf et al.
# Submitted via: CDex 1.51
#
DISCID=2a0c3a16
DTITLE=Lady And The Tramp - Walt Disney's OST RM
DYEAR=2006
DGENRE=Soundtrack
TTITLE0=Main Title (Bella Notte) - The Wag Of A Dog's Tail
TTITLE1=Peace On Earth
TTITLE2=It Has A Ribbon - Lady To Bed - A Few Mornings Later
TTITLE3=Sunday - The Rat - Morning Paper
TTITLE4=A New Collar - Jock and Trusty - It's Jim Dear
TTITLE5=What A Day! - Breakfast At Tony's
TTITLE6=Warning - Breakout - Snob Hill - A Wee Bairn
TTITLE7=Countdown To B-Day
TTITLE8=Baby's First Morning - What Is A Baby? - La La Lu
TTITLE9=Going Away - Aunt Sarah
TTITLE10=The  Siamese Cat Song - What's Going On Down There?
TTITLE11=The Muzzle  - Wrong Side Of The Tracks
TTITLE12=You Poor Kid - He's Not My Dog
TTITLE13=Through The Zoo - A Log Puller
TTITLE14=Footloose And Collar-Free - Bella Notte
TTITLE15=It's Morning - Ever Chase Chickens? - Caught
TTITLE16=Home Sweet Home
TTITLE17=The Pound
TTITLE18=What A Dog! - He's A Tramp
TTITLE19=In The Doghouse - The Rat Returns - Falsely Accused - We've Got To Stop That Wagon - Trusty's Sacrifice
TTITLE20=Watch The Birdie - Visitors
TTITLE21=Finale (Peace On Earth)
EXTD=YEAR: 2006
EXTT0=
EXTT1=
EXTT2=
EXTT3=
EXTT4=
EXTT5=
EXTT6=
EXTT7=
EXTT8=
EXTT9=
EXTT10=
EXTT11=
EXTT12=
EXTT13=
EXTT14=
EXTT15=
EXTT16=
EXTT17=
EXTT18=
EXTT19=
EXTT20=
EXTT21=
PLAYORDER=
